<svg width="32" height="32" viewBox="0 0 32 32" fill="none" xmlns="http://www.w3.org/2000/svg">
  <!-- Blue circular background -->
  <circle cx="16" cy="16" r="16" fill="#3B82F6"/>
  
  <!-- Brain icon in white -->
  <path d="M12 8C10.34 8 9 9.34 9 11C9 11.35 9.07 11.69 9.18 12H9C7.34 12 6 13.34 6 15C6 16.66 7.34 18 9 18H10V20C10 21.1 10.9 22 12 22H20C21.1 22 22 21.1 22 20V18H23C24.66 18 26 16.66 26 15C26 13.34 24.66 12 23 12H22.82C22.93 11.69 23 11.35 23 11C23 9.34 21.66 8 20 8C19.65 8 19.31 8.07 19 8.18C18.69 7.07 17.66 6 16 6C14.34 6 13.31 7.07 13 8.18C12.69 8.07 12.35 8 12 8Z" fill="white"/>
  
  <!-- Additional brain details -->
  <circle cx="13" cy="12" r="1" fill="#3B82F6"/>
  <circle cx="19" cy="12" r="1" fill="#3B82F6"/>
  <path d="M14 15H18" stroke="#3B82F6" stroke-width="1" stroke-linecap="round"/>
  <path d="M12 17H20" stroke="#3B82F6" stroke-width="1" stroke-linecap="round"/>
</svg> 